<?xml version="1.0" encoding="utf-8"?>
<!-- Generator: Adobe Illustrator 26.0.2, SVG Export Plug-In . SVG Version: 6.00 Build 0)  -->
<svg version="1.1" id="Layer_1" xmlns="http://www.w3.org/2000/svg" xmlns:xlink="http://www.w3.org/1999/xlink" x="0px" y="0px"
	 viewBox="0 0 1404 792" style="enable-background:new 0 0 1404 792;" xml:space="preserve">
<style type="text/css">
	.st0{fill:none;stroke:#020202;stroke-width:0.7087;stroke-linecap:round;stroke-linejoin:round;stroke-miterlimit:11.3386;}
	.st1{fill:none;stroke:#010101;stroke-width:0.7087;stroke-linecap:round;stroke-linejoin:round;stroke-miterlimit:11.3386;}
	.st2{fill:none;stroke:#010101;stroke-width:0.7087;stroke-linecap:round;stroke-linejoin:round;stroke-miterlimit:11.339;}
	.st3{fill:none;stroke:#020202;stroke-width:0.7087;stroke-linecap:round;stroke-linejoin:round;stroke-miterlimit:11.3392;}
</style>
<g>
	<circle class="st0" cx="425.2" cy="55.5" r="4.3"/>
	<circle class="st0" cx="612.3" cy="55.5" r="4.3"/>
	<circle class="st0" cx="612.3" cy="188.8" r="4.3"/>
	<circle class="st0" cx="425.2" cy="188.8" r="4.3"/>
	<path class="st0" d="M435.1,61.1h167.2"/>
	<path class="st0" d="M606.6,65.4v113.4"/>
	<path class="st0" d="M602.4,183H435.1"/>
	<path class="st0" d="M430.9,99.4v-34"/>
	<path class="st0" d="M430.9,65.4c0-2.3,1.9-4.3,4.3-4.3"/>
	<path class="st0" d="M602.4,61.1c2.3,0,4.3,1.9,4.3,4.3"/>
	<path class="st0" d="M606.6,178.8c0,2.3-1.9,4.3-4.3,4.3"/>
	<path class="st0" d="M435.1,183c-2.3,0-4.3-1.9-4.3-4.3"/>
	<path class="st0" d="M426.6,103.7h-15"/>
	<path class="st0" d="M411.6,140.6h15"/>
	<path class="st0" d="M430.9,144.8v34"/>
	<path class="st0" d="M407.4,99.4c0,2.3,1.9,4.3,4.3,4.3"/>
	<path class="st0" d="M426.6,103.7c2.3,0,4.3-1.9,4.3-4.3"/>
	<path class="st0" d="M430.9,144.8c0-2.3-1.9-4.3-4.3-4.3"/>
	<path class="st0" d="M411.6,140.6c-2.3,0-4.3,1.9-4.3,4.3"/>
	<path class="st0" d="M407.4,99.4"/>
	<path class="st0" d="M407.4,99.4V52.7c0-8.2,6.6-14.8,14.8-14.8h193.3c8.2,0,14.8,6.6,14.8,14.8v138.8c0,8.2-6.6,14.8-14.8,14.8
		H422.1c-8.2,0-14.8-6.6-14.8-14.8v-46.7"/>
</g>
<g>
	<circle class="st0" cx="912.1" cy="69.7" r="3.4"/>
	<circle class="st0" cx="897.9" cy="55.6" r="4.3"/>
	<circle class="st0" cx="1085" cy="55.6" r="4.3"/>
	<circle class="st0" cx="1085" cy="188.8" r="4.3"/>
	<circle class="st0" cx="897.9" cy="188.8" r="4.3"/>
	<circle class="st0" cx="1070.8" cy="174.6" r="3.4"/>
	<circle class="st0" cx="1070.8" cy="69.7" r="3.4"/>
	<circle class="st0" cx="912.1" cy="174.6" r="3.4"/>
	<path class="st0" d="M1065.2,168.2c0.1,0,0.1,0,0.1-0.1s0-0.1-0.1-0.1l0,0"/>
	<path class="st0" d="M1064.4,168.9c0.4,0,0.7-0.4,0.7-0.7"/>
	<path class="st0" d="M1064.2,168.9c0,0.1,0,0.1,0.1,0.1s0.1,0,0.1-0.1l0,0"/>
	<path class="st0" d="M1026.5,168.9h37.8"/>
	<path class="st0" d="M1026.2,168.9c0,0.1,0,0.1,0.1,0.1s0.1,0,0.1-0.1l0,0"/>
	<path class="st0" d="M1025.5,168.2c0,0.4,0.4,0.7,0.7,0.7"/>
	<path class="st0" d="M1025.5,168c-0.1,0-0.1,0-0.1,0.1s0,0.1,0.1,0.1l0,0"/>
	<path class="st0" d="M1025.5,130.2V168"/>
	<path class="st0" d="M1025.5,130c-0.1,0-0.1,0-0.1,0.1s0,0.1,0.1,0.1l0,0"/>
	<path class="st0" d="M1026.2,129.2c-0.4,0-0.7,0.4-0.7,0.7"/>
	<path class="st0" d="M1026.5,129.2c0-0.1,0-0.1-0.1-0.1s-0.1,0-0.1,0.1l0,0"/>
	<path class="st0" d="M1064.2,129.2h-37.8"/>
	<path class="st0" d="M1064.4,129.2c0-0.1,0-0.1-0.1-0.1s-0.1,0-0.1,0.1l0,0"/>
	<path class="st0" d="M1065.2,130c0-0.4-0.4-0.7-0.7-0.7"/>
	<path class="st0" d="M1065.2,130.2c0.1,0,0.1,0,0.1-0.1s0-0.1-0.1-0.1l0,0"/>
	<path class="st0" d="M1065.2,168v-37.8"/>
	<path class="st0" d="M1010.6,129.2c0-0.1,0-0.1-0.1-0.1s-0.1,0-0.1,0.1l0,0"/>
	<path class="st0" d="M1011.3,130c0-0.4-0.4-0.7-0.7-0.7"/>
	<path class="st0" d="M1011.3,130.2c0.1,0,0.1,0,0.1-0.1s0-0.1-0.1-0.1l0,0"/>
	<path class="st0" d="M1011.3,168v-37.8"/>
	<path class="st0" d="M1011.3,168.2c0.1,0,0.1,0,0.1-0.1s0-0.1-0.1-0.1l0,0"/>
	<path class="st0" d="M1010.6,168.9c0.4,0,0.7-0.4,0.7-0.7"/>
	<path class="st0" d="M1010.4,168.9c0,0.1,0,0.1,0.1,0.1s0.1,0,0.1-0.1l0,0"/>
	<path class="st0" d="M972.6,168.9h37.8"/>
	<path class="st0" d="M972.4,168.9c0,0.1,0,0.1,0.1,0.1s0.1,0,0.1-0.1l0,0"/>
	<path class="st0" d="M971.6,168.2c0,0.4,0.4,0.7,0.7,0.7"/>
	<path class="st0" d="M971.6,168c-0.1,0-0.1,0-0.1,0.1s0,0.1,0.1,0.1l0,0"/>
	<path class="st0" d="M971.6,130.2V168"/>
	<path class="st0" d="M971.6,130c-0.1,0-0.1,0-0.1,0.1s0,0.1,0.1,0.1l0,0"/>
	<path class="st0" d="M972.4,129.2c-0.4,0-0.7,0.4-0.7,0.7"/>
	<path class="st0" d="M972.6,129.2c0-0.1,0-0.1-0.1-0.1s-0.1,0-0.1,0.1l0,0"/>
	<path class="st0" d="M1010.4,129.2h-37.8"/>
	<path class="st0" d="M956.7,129.2c0-0.1,0-0.1-0.1-0.1s-0.1,0-0.1,0.1l0,0"/>
	<path class="st0" d="M957.5,130c0-0.4-0.4-0.7-0.7-0.7"/>
	<path class="st0" d="M957.5,130.2c0.1,0,0.1,0,0.1-0.1s0-0.1-0.1-0.1l0,0"/>
	<path class="st0" d="M957.5,168v-37.8"/>
	<path class="st0" d="M957.5,168.2c0.1,0,0.1,0,0.1-0.1s0-0.1-0.1-0.1l0,0"/>
	<path class="st0" d="M956.7,168.9c0.4,0,0.7-0.4,0.7-0.7"/>
	<path class="st0" d="M956.5,168.9c0,0.1,0,0.1,0.1,0.1s0.1,0,0.1-0.1l0,0"/>
	<path class="st0" d="M952.7,168.9h3.8"/>
	<path class="st0" d="M952.5,169c0,0.1,0.1,0.1,0.1,0.1c0.1,0,0.1-0.1,0.1-0.1"/>
	<path class="st0" d="M952.5,169c-0.4,0-0.7,0.4-0.7,0.7"/>
	<path class="st0" d="M951.8,169.9c0.1,0,0.1,0,0.1-0.1s0-0.1-0.1-0.1"/>
	<path class="st0" d="M951.8,171.4v-1.5"/>
	<path class="st0" d="M951.8,171.6c0.1,0,0.1,0,0.1-0.1s0-0.1-0.1-0.1l0,0"/>
	<path class="st0" d="M951,172.2c0.4,0,0.7-0.4,0.7-0.7"/>
	<path class="st0" d="M950.8,172.2c0,0.1,0,0.1,0.1,0.1s0.1,0,0.1-0.1l0,0"/>
	<path class="st0" d="M924.4,172.2h26.4"/>
	<path class="st0" d="M924.2,172.2c0,0.1,0,0.1,0.1,0.1s0.1,0,0.1-0.1l0,0"/>
	<path class="st0" d="M923.5,171.6c0,0.4,0.4,0.7,0.7,0.7"/>
	<path class="st0" d="M923.4,171.4c-0.1,0-0.1,0-0.1,0.1s0,0.1,0.1,0.1l0,0"/>
	<path class="st0" d="M923.4,169.9v1.5"/>
	<path class="st0" d="M923.4,169.7c-0.1,0-0.1,0.1-0.1,0.1c0,0.1,0.1,0.1,0.1,0.1"/>
	<path class="st0" d="M923.4,169.7c0-0.4-0.4-0.7-0.7-0.7"/>
	<path class="st0" d="M922.5,168.9c0,0.1,0,0.1,0.1,0.1s0.1,0,0.1-0.1"/>
	<path class="st0" d="M918.7,168.9h3.8"/>
	<path class="st0" d="M918.5,168.9c0,0.1,0,0.1,0.1,0.1s0.1,0,0.1-0.1l0,0"/>
	<path class="st0" d="M917.8,168.2c0,0.4,0.4,0.7,0.7,0.7"/>
	<path class="st0" d="M917.8,168c-0.1,0-0.1,0-0.1,0.1s0,0.1,0.1,0.1l0,0"/>
	<path class="st0" d="M917.8,130.2V168"/>
	<path class="st0" d="M917.8,130c-0.1,0-0.1,0-0.1,0.1s0,0.1,0.1,0.1l0,0"/>
	<path class="st0" d="M918.5,129.2c-0.4,0-0.7,0.4-0.7,0.7"/>
	<path class="st0" d="M918.7,129.2c0-0.1,0-0.1-0.1-0.1s-0.1,0-0.1,0.1l0,0"/>
	<path class="st0" d="M956.5,129.2h-37.8"/>
	<path class="st0" d="M1065.2,114.2C1065.3,114.2,1065.3,114.2,1065.2,114.2c0.1-0.2,0.1-0.2,0-0.2l0,0"/>
	<path class="st0" d="M1064.4,115.1c0.4,0,0.7-0.4,0.7-0.7"/>
	<path class="st0" d="M1064.2,115.1C1064.2,115.2,1064.2,115.2,1064.2,115.1c0.2,0.1,0.2,0.1,0.2,0l0,0"/>
	<path class="st0" d="M1026.5,115.1h37.8"/>
	<path class="st0" d="M1026.2,115.1C1026.2,115.2,1026.2,115.2,1026.2,115.1c0.2,0.1,0.2,0.1,0.2,0l0,0"/>
	<path class="st0" d="M1025.5,114.2c0,0.4,0.4,0.7,0.7,0.7"/>
	<path class="st0" d="M1025.5,114.1C1025.4,114.1,1025.4,114.1,1025.5,114.1c-0.1,0.2-0.1,0.2,0,0.2l0,0"/>
	<path class="st0" d="M1025.5,76.3v37.8"/>
	<path class="st0" d="M1025.5,76.1C1025.4,76.1,1025.4,76.1,1025.5,76.1c-0.1,0.2-0.1,0.2,0,0.2l0,0"/>
	<path class="st0" d="M1026.2,75.3c-0.4,0-0.7,0.4-0.7,0.7"/>
	<path class="st0" d="M1026.5,75.3C1026.5,75.2,1026.5,75.2,1026.5,75.3c-0.2-0.1-0.2-0.1-0.2,0l0,0"/>
	<path class="st0" d="M1064.2,75.3h-37.8"/>
	<path class="st0" d="M1064.4,75.3C1064.4,75.2,1064.4,75.2,1064.4,75.3c-0.2-0.1-0.2-0.1-0.2,0l0,0"/>
	<path class="st0" d="M1065.2,76.1c0-0.4-0.4-0.7-0.7-0.7"/>
	<path class="st0" d="M1065.2,76.3C1065.3,76.3,1065.3,76.3,1065.2,76.3c0.1-0.2,0.1-0.2,0-0.2l0,0"/>
	<path class="st0" d="M1065.2,114.1V76.3"/>
	<path class="st0" d="M1011.3,114.2C1011.4,114.2,1011.4,114.2,1011.3,114.2c0.1-0.2,0.1-0.2,0-0.2l0,0"/>
	<path class="st0" d="M1010.6,115.1c0.4,0,0.7-0.4,0.7-0.7"/>
	<path class="st0" d="M1010.4,115.1C1010.4,115.2,1010.4,115.2,1010.4,115.1c0.2,0.1,0.2,0.1,0.2,0l0,0"/>
	<path class="st0" d="M972.6,115.1h37.8"/>
	<path class="st0" d="M972.4,115.1C972.4,115.2,972.4,115.2,972.4,115.1c0.2,0.1,0.2,0.1,0.2,0l0,0"/>
	<path class="st0" d="M971.6,114.2c0,0.4,0.4,0.7,0.7,0.7"/>
	<path class="st0" d="M971.6,114.1C971.5,114.1,971.5,114.1,971.6,114.1c-0.1,0.2-0.1,0.2,0,0.2l0,0"/>
	<path class="st0" d="M971.6,76.3v37.8"/>
	<path class="st0" d="M971.6,76.1C971.5,76.1,971.5,76.1,971.6,76.1c-0.1,0.2-0.1,0.2,0,0.2l0,0"/>
	<path class="st0" d="M972.4,75.3c-0.4,0-0.7,0.4-0.7,0.7"/>
	<path class="st0" d="M972.6,75.3C972.6,75.2,972.6,75.2,972.6,75.3c-0.2-0.1-0.2-0.1-0.2,0l0,0"/>
	<path class="st0" d="M1010.4,75.3h-37.8"/>
	<path class="st0" d="M1010.6,75.3C1010.6,75.2,1010.6,75.2,1010.6,75.3c-0.2-0.1-0.2-0.1-0.2,0l0,0"/>
	<path class="st0" d="M1011.3,76.1c0-0.4-0.4-0.7-0.7-0.7"/>
	<path class="st0" d="M1011.3,76.3C1011.4,76.3,1011.4,76.3,1011.3,76.3c0.1-0.2,0.1-0.2,0-0.2l0,0"/>
	<path class="st0" d="M1011.3,114.1V76.3"/>
	<path class="st0" d="M957.5,114.2C957.6,114.2,957.6,114.2,957.5,114.2c0.1-0.2,0.1-0.2,0-0.2l0,0"/>
	<path class="st0" d="M956.7,115.1c0.4,0,0.7-0.4,0.7-0.7"/>
	<path class="st0" d="M956.5,115.1C956.5,115.2,956.5,115.2,956.5,115.1c0.2,0.1,0.2,0.1,0.2,0l0,0"/>
	<path class="st0" d="M918.7,115.1h37.8"/>
	<path class="st0" d="M918.5,115.1C918.5,115.2,918.5,115.2,918.5,115.1c0.2,0.1,0.2,0.1,0.2,0l0,0"/>
	<path class="st0" d="M917.8,114.2c0,0.4,0.4,0.7,0.7,0.7"/>
	<path class="st0" d="M917.8,114.1C917.7,114.1,917.7,114.1,917.8,114.1c-0.1,0.2-0.1,0.2,0,0.2l0,0"/>
	<path class="st0" d="M917.8,76.3v37.8"/>
	<path class="st0" d="M917.8,76.1C917.7,76.1,917.7,76.1,917.8,76.1c-0.1,0.2-0.1,0.2,0,0.2l0,0"/>
	<path class="st0" d="M918.5,75.3c-0.4,0-0.7,0.4-0.7,0.7"/>
	<path class="st0" d="M918.7,75.3C918.7,75.2,918.7,75.2,918.7,75.3c-0.2-0.1-0.2-0.1-0.2,0l0,0"/>
	<path class="st0" d="M956.5,75.3h-37.8"/>
	<path class="st0" d="M956.7,75.3C956.7,75.2,956.7,75.2,956.7,75.3c-0.2-0.1-0.2-0.1-0.2,0l0,0"/>
	<path class="st0" d="M957.5,76.1c0-0.4-0.4-0.7-0.7-0.7"/>
	<path class="st0" d="M957.5,76.3C957.6,76.3,957.6,76.3,957.5,76.3c0.1-0.2,0.1-0.2,0-0.2l0,0"/>
	<path class="st0" d="M957.5,114.1V76.3"/>
	<path class="st0" d="M1076.5,174.5c-0.1,0-0.1,0-0.1,0.1s0,0.1,0.1,0.1l0,0"/>
	<path class="st0" d="M1088.1,206.4H894.8c-8.2,0-14.8-6.6-14.8-14.8V52.8c0-8.2,6.6-14.8,14.8-14.8h193.3c8.2,0,14.8,6.6,14.8,14.8
		v138.8C1102.9,199.7,1096.3,206.4,1088.1,206.4z"/>
</g>
<g>
	<circle class="st0" cx="658.6" cy="249.5" r="4.3"/>
	<circle class="st0" cx="658.6" cy="382.8" r="4.3"/>
	<circle class="st0" cx="845.7" cy="382.8" r="4.3"/>
	<circle class="st0" cx="845.7" cy="249.5" r="4.3"/>
	<path class="st0" d="M831.4,258H672.8"/>
	<path class="st0" d="M672.8,258c-3.1,0-5.7,2.5-5.7,5.7"/>
	<path class="st0" d="M667.1,263.8v104.9"/>
	<path class="st0" d="M667.1,368.6c0,3.1,2.5,5.7,5.7,5.7"/>
	<path class="st0" d="M672.8,374.2h158.6"/>
	<path class="st0" d="M831.6,374.2c0-0.1,0-0.1-0.1-0.1s-0.1,0-0.1,0.1l0,0"/>
	<path class="st0" d="M831.6,374.2c3-0.1,5.5-2.5,5.6-5.6"/>
	<path class="st0" d="M837.2,368.5c-0.1,0-0.1,0-0.1,0.1s0,0.1,0.1,0.1l0,0"/>
	<path class="st0" d="M837.2,368.5V263.9"/>
	<path class="st0" d="M837.2,263.6c-0.1,0-0.1,0-0.1,0.1s0,0.1,0.1,0.1l0,0"/>
	<path class="st0" d="M837.2,263.6c-0.1-3-2.5-5.5-5.6-5.6"/>
	<path class="st0" d="M831.4,258c0,0.1,0,0.1,0.1,0.1s0.1,0,0.1-0.1"/>
	<path class="st0" d="M848.7,400.4H655.4c-8.2,0-14.8-6.6-14.8-14.8V246.8c0-8.2,6.6-14.8,14.8-14.8h193.3c8.2,0,14.8,6.6,14.8,14.8
		v138.8C863.5,393.8,856.9,400.4,848.7,400.4z"/>
</g>
<g>
	<circle class="st0" cx="658.5" cy="55.5" r="4.3"/>
	<circle class="st0" cx="845.6" cy="55.5" r="4.3"/>
	<circle class="st0" cx="845.6" cy="188.8" r="4.3"/>
	<circle class="st0" cx="658.5" cy="188.8" r="4.3"/>
	<path class="st0" d="M668.4,61.2h167.2"/>
	<path class="st0" d="M839.9,65.4v113.4"/>
	<path class="st0" d="M835.7,183.2H668.4"/>
	<path class="st0" d="M664.2,99.4v-34"/>
	<path class="st0" d="M664.2,65.4c0-2.3,1.9-4.3,4.3-4.3"/>
	<path class="st0" d="M835.7,61.2c2.3,0,4.3,1.9,4.3,4.3"/>
	<path class="st0" d="M839.9,178.9c0,2.3-1.9,4.3-4.3,4.3"/>
	<path class="st0" d="M668.4,183.2c-2.3,0-4.3-1.9-4.3-4.3"/>
	<path class="st0" d="M659.9,103.8h-15"/>
	<path class="st0" d="M644.9,140.6h15"/>
	<path class="st0" d="M664.2,144.9v34"/>
	<path class="st0" d="M640.7,99.4c0,2.3,1.9,4.3,4.3,4.3"/>
	<path class="st0" d="M659.9,103.8c2.3,0,4.3-1.9,4.3-4.3"/>
	<path class="st0" d="M664.2,144.9c0-2.3-1.9-4.3-4.3-4.3"/>
	<path class="st0" d="M644.9,140.6c-2.3,0-4.3,1.9-4.3,4.3"/>
	<path class="st0" d="M640.7,99.4"/>
	<path class="st0" d="M640.7,99.4V52.8c0-8.2,6.6-14.8,14.8-14.8h193.3c8.2,0,14.8,6.6,14.8,14.8v138.8c0,8.2-6.6,14.8-14.8,14.8
		H655.4c-8.2,0-14.8-6.6-14.8-14.8v-46.7"/>
</g>
<g>
	<circle class="st1" cx="911.4" cy="249.5" r="3.4"/>
	<circle class="st1" cx="911.4" cy="382.7" r="3.4"/>
	
		<ellipse transform="matrix(0.9871 -0.1602 0.1602 0.9871 -25.7826 179.2026)" class="st2" cx="1098.5" cy="249.5" rx="3.4" ry="3.4"/>
	<circle class="st1" cx="1098.5" cy="382.7" r="3.4"/>
	<path class="st0" d="M1084.4,258.1H925.8"/>
	<path class="st0" d="M925.8,258.1c-3.1,0-5.7,2.5-5.7,5.7"/>
	<path class="st0" d="M920.1,263.7v104.9"/>
	<path class="st0" d="M920.1,368.6c0,3.1,2.5,5.7,5.7,5.7"/>
	<path class="st0" d="M925.8,374.3h158.6"/>
	<path class="st0" d="M1084.6,374.3c0-0.1,0-0.1-0.1-0.1s-0.1,0-0.1,0.1l0,0"/>
	<path class="st0" d="M1084.6,374.3c3-0.1,5.5-2.5,5.6-5.6"/>
	<path class="st0" d="M1090.2,368.5c-0.1,0-0.1,0-0.1,0.1s0,0.1,0.1,0.1l0,0"/>
	<path class="st0" d="M1090.2,368.5V263.8"/>
	<path class="st0" d="M1090.2,263.6c-0.1,0-0.1,0-0.1,0.1s0,0.1,0.1,0.1l0,0"/>
	<path class="st0" d="M1090.2,263.6c-0.1-3-2.5-5.5-5.6-5.6"/>
	<path class="st0" d="M1084.4,258.1c0,0.1,0,0.1,0.1,0.1s0.1,0,0.1-0.1"/>
	<path class="st0" d="M1101.7,400.3H908.4c-8.2,0-14.8-6.6-14.8-14.8V246.8c0-8.2,6.6-14.8,14.8-14.8h193.3
		c8.2,0,14.8,6.6,14.8,14.8v138.8C1116.5,393.7,1109.9,400.3,1101.7,400.3z"/>
</g>
<g>
	<circle class="st0" cx="172" cy="46.2" r="3.4"/>
	<ellipse transform="matrix(0.9871 -0.1602 0.1602 0.9871 -2.7473 58.1233)" class="st3" cx="359.1" cy="46.1" rx="3.4" ry="3.4"/>
	<circle class="st0" cx="359.1" cy="179.4" r="3.4"/>
	<circle class="st0" cx="172" cy="179.4" r="3.4"/>
	<path class="st0" d="M362.1,28.7H168.8c-4,0-7.7,1.6-10.4,4.3c-4.2,4.2-4.3,9.4-4.3,10.4c0,12.6,0,25.3,0,38c0,2.9,0,5.8,0,8.7
		v45.5c0,3.3,0,6.6,0,9.8c0,15.8,0,30.3,0,36.9c0,8.2,6.6,14.8,14.8,14.8h193.2c8.2,0,14.8-6.6,14.8-14.8V43.5
		C376.9,35.3,370.3,28.7,362.1,28.7z"/>
</g>
<g id="Layer_2_00000029042718330157868010000005034307508729214080_">
	<path class="st0" d="M447.6,527.7c3.1-4.9,6.2-8.5,2.4-11c-5.7-3.7-17.1-3.4-17.1-3.4s-11.4-0.3-17.1,3.4c-3.8,2.4-0.7,6,2.4,10.9
		l0,0c0,0,2.3,5.5,0,12.6l0,0c-3.1,4.9-6.2,8.5-2.4,10.9c5.7,3.7,17.1,3.4,17.1,3.4s11.4,0.3,17.1-3.4c3.8-2.4,0.7-6.1-2.4-11
		C445.4,533.4,447.5,528.1,447.6,527.7z"/>
</g>
<g>
	<circle class="st0" cx="172" cy="236.3" r="4.3"/>
	<circle class="st0" cx="172" cy="369.5" r="4.3"/>
	<circle class="st0" cx="359.1" cy="369.5" r="4.3"/>
	<circle class="st0" cx="359.1" cy="236.3" r="4.3"/>
	<path class="st0" d="M344.8,244.8H186.2"/>
	<path class="st0" d="M186.2,244.8c-3.1,0-5.7,2.5-5.7,5.7"/>
	<path class="st0" d="M180.5,250.5v104.9"/>
	<path class="st0" d="M180.5,355.4c0,3.1,2.5,5.7,5.7,5.7"/>
	<path class="st0" d="M186.2,361h158.6"/>
	<path class="st0" d="M345.1,361c0-0.1,0-0.1-0.1-0.1s-0.1,0-0.1,0.1l0,0"/>
	<path class="st0" d="M345.1,361c3-0.1,5.5-2.5,5.6-5.6"/>
	<path class="st0" d="M350.6,355.3c-0.1,0-0.1,0-0.1,0.1s0,0.1,0.1,0.1l0,0"/>
	<path class="st0" d="M350.6,355.3V250.6"/>
	<path class="st0" d="M350.6,250.4c-0.1,0-0.1,0-0.1,0.1s0,0.1,0.1,0.1l0,0"/>
	<path class="st0" d="M350.6,250.4c-0.1-3-2.5-5.5-5.6-5.6"/>
	<path class="st0" d="M344.8,244.8c0,0.1,0,0.1,0.1,0.1s0.1,0,0.1-0.1"/>
	<path class="st0" d="M362.1,387.1H168.8c-8.2,0-14.8-6.6-14.8-14.8V233.5c0-8.2,6.6-14.8,14.8-14.8h193.3c8.2,0,14.8,6.6,14.8,14.8
		v138.8C376.9,380.5,370.3,387.1,362.1,387.1z"/>
</g>
<g>
	<circle class="st0" cx="429.7" cy="243.8" r="4.3"/>
	<circle class="st0" cx="429.7" cy="377" r="4.3"/>
	<circle class="st0" cx="616.8" cy="377" r="4.3"/>
	<circle class="st0" cx="616.8" cy="243.8" r="4.3"/>
	<path class="st0" d="M602.5,252.3H443.9"/>
	<path class="st0" d="M443.9,252.3c-3.1,0-5.7,2.5-5.7,5.7"/>
	<path class="st0" d="M438.2,258v104.9"/>
	<path class="st0" d="M438.2,362.9c0,3.1,2.5,5.7,5.7,5.7"/>
	<path class="st0" d="M443.9,368.5h158.6"/>
	<path class="st0" d="M602.7,368.5c0-0.1,0-0.1-0.1-0.1s-0.1,0-0.1,0.1l0,0"/>
	<path class="st0" d="M602.7,368.5c3-0.1,5.5-2.5,5.6-5.6"/>
	<path class="st0" d="M608.3,362.8c-0.1,0-0.1,0-0.1,0.1s0,0.1,0.1,0.1l0,0"/>
	<path class="st0" d="M608.3,362.8V258.1"/>
	<path class="st0" d="M608.3,257.9c-0.1,0-0.1,0-0.1,0.1s0,0.1,0.1,0.1l0,0"/>
	<path class="st0" d="M608.3,257.9c-0.1-3-2.5-5.5-5.6-5.6"/>
	<path class="st0" d="M602.5,252.3c0,0.1,0,0.1,0.1,0.1s0.1,0,0.1-0.1"/>
	<path class="st0" d="M619.8,394.6H426.5c-8.2,0-14.8-6.6-14.8-14.8V241c0-8.2,6.6-14.8,14.8-14.8h193.3c8.2,0,14.8,6.6,14.8,14.8
		v138.8C634.6,388,628,394.6,619.8,394.6z"/>
</g>
</svg>
