<?xml version="1.0" encoding="utf-8"?>
<!-- Generator: Adobe Illustrator 26.0.2, SVG Export Plug-In . SVG Version: 6.00 Build 0)  -->
<svg version="1.1" id="Layer_1" xmlns="http://www.w3.org/2000/svg" xmlns:xlink="http://www.w3.org/1999/xlink" x="0px" y="0px"
	 viewBox="0 0 38.4 41.9" style="enable-background:new 0 0 38.4 41.9;" xml:space="preserve">
<style type="text/css">
	.st0{fill:none;stroke:#020202;stroke-width:0.7087;stroke-linecap:round;stroke-linejoin:round;stroke-miterlimit:11.3386;}
</style>
<g id="Layer_2_00000029042718330157868010000005034307508729214080_">
	<path class="st0" d="M33.9,14.8c3.1-4.9,6.2-8.5,2.4-11c-5.7-3.7-17.1-3.4-17.1-3.4S7.8,0.1,2.1,3.8c-3.8,2.4-0.7,6,2.4,10.9l0,0
		c0,0,2.3,5.5,0,12.6l0,0c-3.1,4.9-6.2,8.5-2.4,10.9c5.7,3.7,17.1,3.4,17.1,3.4s11.4,0.3,17.1-3.4c3.8-2.4,0.7-6.1-2.4-11
		C31.7,20.5,33.8,15.2,33.9,14.8z"/>
</g>
</svg>
