<?xml version="1.0" encoding="utf-8"?>
<!-- Generator: Adobe Illustrator 26.0.2, SVG Export Plug-In . SVG Version: 6.00 Build 0)  -->
<svg version="1.1" id="Layer_1" xmlns="http://www.w3.org/2000/svg" xmlns:xlink="http://www.w3.org/1999/xlink" x="0px" y="0px"
	 viewBox="0 0 223.5 169.1" style="enable-background:new 0 0 223.5 169.1;" xml:space="preserve">
<style type="text/css">
	.st0{fill:none;stroke:#020202;stroke-width:0.7087;stroke-linecap:round;stroke-linejoin:round;stroke-miterlimit:11.3386;}
	.st1{fill:none;stroke:#020202;stroke-width:0.7087;stroke-linecap:round;stroke-linejoin:round;stroke-miterlimit:11.339;}
</style>
<g>
	<circle class="st0" cx="18.3" cy="17.9" r="3.4"/>
	<ellipse transform="matrix(0.9871 -0.1602 0.1602 0.9871 -0.1916 33.1272)" class="st1" cx="205.4" cy="17.8" rx="3.4" ry="3.4"/>
	<circle class="st0" cx="205.4" cy="151.1" r="3.4"/>
	<circle class="st0" cx="18.3" cy="151.1" r="3.4"/>
	<path class="st0" d="M208.4,0.4H15.1c-4,0-7.7,1.6-10.4,4.3c-4.2,4.2-4.3,9.4-4.3,10.4c0,12.6,0,25.3,0,38c0,2.9,0,5.8,0,8.7v45.5
		c0,3.3,0,6.6,0,9.8c0,15.8,0,30.3,0,36.9c0,8.2,6.6,14.8,14.8,14.8h193.2c8.2,0,14.8-6.6,14.8-14.8V15.2
		C223.2,7,216.6,0.4,208.4,0.4z"/>
</g>
</svg>
