<?xml version="1.0" encoding="utf-8"?>
<!-- Generator: Adobe Illustrator 26.0.2, SVG Export Plug-In . SVG Version: 6.00 Build 0)  -->
<svg version="1.1" id="Layer_1" xmlns="http://www.w3.org/2000/svg" xmlns:xlink="http://www.w3.org/1999/xlink" x="0px" y="0px"
	 viewBox="0 0 223.7 169.1" style="enable-background:new 0 0 223.7 169.1;" xml:space="preserve">
<style type="text/css">
	.st0{fill:none;stroke:#020202;stroke-width:0.7087;stroke-linecap:round;stroke-linejoin:round;stroke-miterlimit:11.3386;}
</style>
<g>
	<circle class="st0" cx="18.3" cy="18" r="4.3"/>
	<circle class="st0" cx="205.4" cy="18" r="4.3"/>
	<circle class="st0" cx="205.4" cy="151.2" r="4.3"/>
	<circle class="st0" cx="18.3" cy="151.2" r="4.3"/>
	<path class="st0" d="M28.2,23.6h167.2"/>
	<path class="st0" d="M199.7,27.9v113.4"/>
	<path class="st0" d="M195.5,145.5H28.2"/>
	<path class="st0" d="M24,61.9v-34"/>
	<path class="st0" d="M24,27.9c0-2.3,1.9-4.3,4.3-4.3"/>
	<path class="st0" d="M195.5,23.6c2.3,0,4.3,1.9,4.3,4.3"/>
	<path class="st0" d="M199.7,141.3c0,2.3-1.9,4.3-4.3,4.3"/>
	<path class="st0" d="M28.2,145.5c-2.3,0-4.3-1.9-4.3-4.3"/>
	<path class="st0" d="M19.7,66.2h-15"/>
	<path class="st0" d="M4.7,103h15"/>
	<path class="st0" d="M24,107.3v34"/>
	<path class="st0" d="M0.5,61.9c0,2.3,1.9,4.3,4.3,4.3"/>
	<path class="st0" d="M19.7,66.2c2.3,0,4.3-1.9,4.3-4.3"/>
	<path class="st0" d="M24,107.3c0-2.3-1.9-4.3-4.3-4.3"/>
	<path class="st0" d="M4.7,103c-2.3,0-4.3,1.9-4.3,4.3"/>
	<path class="st0" d="M0.5,61.9"/>
	<path class="st0" d="M0.5,61.9V15.2C0.5,7,7.1,0.4,15.3,0.4h193.3c8.2,0,14.8,6.6,14.8,14.8V154c0,8.2-6.6,14.8-14.8,14.8H15.2
		c-8.2,0-14.8-6.6-14.8-14.8v-46.7"/>
</g>
</svg>
