<?xml version="1.0" encoding="utf-8"?>
<!-- Generator: Adobe Illustrator 26.0.2, SVG Export Plug-In . SVG Version: 6.00 Build 0)  -->
<svg version="1.1" id="Layer_1" xmlns="http://www.w3.org/2000/svg" xmlns:xlink="http://www.w3.org/1999/xlink" x="0px" y="0px"
	 viewBox="0 0 223.6 169.1" style="enable-background:new 0 0 223.6 169.1;" xml:space="preserve">
<style type="text/css">
	.st0{fill:none;stroke:#020202;stroke-width:0.7087;stroke-linecap:round;stroke-linejoin:round;stroke-miterlimit:11.3386;}
</style>
<g>
	<circle class="st0" cx="32.5" cy="32.1" r="3.4"/>
	<circle class="st0" cx="18.3" cy="18" r="4.3"/>
	<circle class="st0" cx="205.4" cy="18" r="4.3"/>
	<circle class="st0" cx="205.4" cy="151.2" r="4.3"/>
	<circle class="st0" cx="18.3" cy="151.2" r="4.3"/>
	<circle class="st0" cx="191.2" cy="137" r="3.4"/>
	<circle class="st0" cx="191.2" cy="32.1" r="3.4"/>
	<circle class="st0" cx="32.5" cy="137" r="3.4"/>
	<path class="st0" d="M185.6,130.6c0.1,0,0.1,0,0.1-0.1s0-0.1-0.1-0.1l0,0"/>
	<path class="st0" d="M184.8,131.3c0.4,0,0.7-0.4,0.7-0.7"/>
	<path class="st0" d="M184.6,131.3c0,0.1,0,0.1,0.1,0.1s0.1,0,0.1-0.1l0,0"/>
	<path class="st0" d="M146.9,131.3h37.8"/>
	<path class="st0" d="M146.6,131.3c0,0.1,0,0.1,0.1,0.1s0.1,0,0.1-0.1l0,0"/>
	<path class="st0" d="M145.9,130.6c0,0.4,0.4,0.7,0.7,0.7"/>
	<path class="st0" d="M145.9,130.4c-0.1,0-0.1,0-0.1,0.1s0,0.1,0.1,0.1l0,0"/>
	<path class="st0" d="M145.9,92.6v37.8"/>
	<path class="st0" d="M145.9,92.4c-0.1,0-0.1,0-0.1,0.1s0,0.1,0.1,0.1l0,0"/>
	<path class="st0" d="M146.6,91.7c-0.4,0-0.7,0.4-0.7,0.7"/>
	<path class="st0" d="M146.9,91.7c0-0.1,0-0.1-0.1-0.1s-0.1,0-0.1,0.1l0,0"/>
	<path class="st0" d="M184.6,91.7h-37.8"/>
	<path class="st0" d="M184.8,91.7c0-0.1,0-0.1-0.1-0.1s-0.1,0-0.1,0.1l0,0"/>
	<path class="st0" d="M185.6,92.4c0-0.4-0.4-0.7-0.7-0.7"/>
	<path class="st0" d="M185.6,92.6c0.1,0,0.1,0,0.1-0.1s0-0.1-0.1-0.1l0,0"/>
	<path class="st0" d="M185.6,130.4V92.6"/>
	<path class="st0" d="M131,91.7c0-0.1,0-0.1-0.1-0.1s-0.1,0-0.1,0.1l0,0"/>
	<path class="st0" d="M131.7,92.4c0-0.4-0.4-0.7-0.7-0.7"/>
	<path class="st0" d="M131.7,92.6c0.1,0,0.1,0,0.1-0.1s0-0.1-0.1-0.1l0,0"/>
	<path class="st0" d="M131.7,130.4V92.6"/>
	<path class="st0" d="M131.7,130.6c0.1,0,0.1,0,0.1-0.1s0-0.1-0.1-0.1l0,0"/>
	<path class="st0" d="M131,131.3c0.4,0,0.7-0.4,0.7-0.7"/>
	<path class="st0" d="M130.8,131.3c0,0.1,0,0.1,0.1,0.1s0.1,0,0.1-0.1l0,0"/>
	<path class="st0" d="M93,131.3h37.8"/>
	<path class="st0" d="M92.8,131.3c0,0.1,0,0.1,0.1,0.1s0.1,0,0.1-0.1l0,0"/>
	<path class="st0" d="M92,130.6c0,0.4,0.4,0.7,0.7,0.7"/>
	<path class="st0" d="M92,130.4c-0.1,0-0.1,0-0.1,0.1s0,0.1,0.1,0.1l0,0"/>
	<path class="st0" d="M92,92.6v37.8"/>
	<path class="st0" d="M92,92.4c-0.1,0-0.1,0-0.1,0.1s0,0.1,0.1,0.1l0,0"/>
	<path class="st0" d="M92.8,91.7c-0.4,0-0.7,0.4-0.7,0.7"/>
	<path class="st0" d="M93,91.7c0-0.1,0-0.1-0.1-0.1s-0.1,0-0.1,0.1l0,0"/>
	<path class="st0" d="M130.8,91.7H93"/>
	<path class="st0" d="M77.1,91.7c0-0.1,0-0.1-0.1-0.1s-0.1,0-0.1,0.1l0,0"/>
	<path class="st0" d="M77.9,92.4c0-0.4-0.4-0.7-0.7-0.7"/>
	<path class="st0" d="M77.9,92.6c0.1,0,0.1,0,0.1-0.1s0-0.1-0.1-0.1l0,0"/>
	<path class="st0" d="M77.9,130.4V92.6"/>
	<path class="st0" d="M77.9,130.6c0.1,0,0.1,0,0.1-0.1s0-0.1-0.1-0.1l0,0"/>
	<path class="st0" d="M77.1,131.3c0.4,0,0.7-0.4,0.7-0.7"/>
	<path class="st0" d="M76.9,131.3c0,0.1,0,0.1,0.1,0.1s0.1,0,0.1-0.1l0,0"/>
	<path class="st0" d="M73.1,131.3h3.8"/>
	<path class="st0" d="M72.9,131.4c0,0.1,0.1,0.1,0.1,0.1c0.1,0,0.1-0.1,0.1-0.1"/>
	<path class="st0" d="M72.9,131.4c-0.4,0-0.7,0.4-0.7,0.7"/>
	<path class="st0" d="M72.2,132.3c0.1,0,0.1,0,0.1-0.1s0-0.1-0.1-0.1"/>
	<path class="st0" d="M72.2,133.8v-1.5"/>
	<path class="st0" d="M72.2,134c0.1,0,0.1,0,0.1-0.1s0-0.1-0.1-0.1l0,0"/>
	<path class="st0" d="M71.4,134.7c0.4,0,0.7-0.4,0.7-0.7"/>
	<path class="st0" d="M71.2,134.7c0,0.1,0,0.1,0.1,0.1s0.1,0,0.1-0.1l0,0"/>
	<path class="st0" d="M44.8,134.7h26.4"/>
	<path class="st0" d="M44.6,134.7c0,0.1,0,0.1,0.1,0.1s0.1,0,0.1-0.1l0,0"/>
	<path class="st0" d="M43.9,134c0,0.4,0.4,0.7,0.7,0.7"/>
	<path class="st0" d="M43.8,133.8c-0.1,0-0.1,0-0.1,0.1s0,0.1,0.1,0.1l0,0"/>
	<path class="st0" d="M43.8,132.3v1.5"/>
	<path class="st0" d="M43.8,132.1c-0.1,0-0.1,0.1-0.1,0.1c0,0.1,0.1,0.1,0.1,0.1"/>
	<path class="st0" d="M43.8,132.1c0-0.4-0.4-0.7-0.7-0.7"/>
	<path class="st0" d="M42.9,131.3c0,0.1,0,0.1,0.1,0.1s0.1,0,0.1-0.1"/>
	<path class="st0" d="M39.1,131.3h3.8"/>
	<path class="st0" d="M38.9,131.3c0,0.1,0,0.1,0.1,0.1s0.1,0,0.1-0.1l0,0"/>
	<path class="st0" d="M38.2,130.6c0,0.4,0.4,0.7,0.7,0.7"/>
	<path class="st0" d="M38.2,130.4c-0.1,0-0.1,0-0.1,0.1s0,0.1,0.1,0.1l0,0"/>
	<path class="st0" d="M38.2,92.6v37.8"/>
	<path class="st0" d="M38.2,92.4c-0.1,0-0.1,0-0.1,0.1s0,0.1,0.1,0.1l0,0"/>
	<path class="st0" d="M38.9,91.7c-0.4,0-0.7,0.4-0.7,0.7"/>
	<path class="st0" d="M39.1,91.7c0-0.1,0-0.1-0.1-0.1s-0.1,0-0.1,0.1l0,0"/>
	<path class="st0" d="M76.9,91.7H39.1"/>
	<path class="st0" d="M185.6,76.7c0.1,0,0.1,0,0.1-0.1s0-0.1-0.1-0.1l0,0"/>
	<path class="st0" d="M184.8,77.5c0.4,0,0.7-0.4,0.7-0.7"/>
	<path class="st0" d="M184.6,77.5c0,0.1,0,0.1,0.1,0.1s0.1,0,0.1-0.1l0,0"/>
	<path class="st0" d="M146.9,77.5h37.8"/>
	<path class="st0" d="M146.6,77.5c0,0.1,0,0.1,0.1,0.1s0.1,0,0.1-0.1l0,0"/>
	<path class="st0" d="M145.9,76.7c0,0.4,0.4,0.7,0.7,0.7"/>
	<path class="st0" d="M145.9,76.5c-0.1,0-0.1,0-0.1,0.1s0,0.1,0.1,0.1l0,0"/>
	<path class="st0" d="M145.9,38.8v37.8"/>
	<path class="st0" d="M145.9,38.5c-0.1,0-0.1,0-0.1,0.1s0,0.1,0.1,0.1l0,0"/>
	<path class="st0" d="M146.6,37.8c-0.4,0-0.7,0.4-0.7,0.7"/>
	<path class="st0" d="M146.9,37.8c0-0.1,0-0.1-0.1-0.1s-0.1,0-0.1,0.1l0,0"/>
	<path class="st0" d="M184.6,37.8h-37.8"/>
	<path class="st0" d="M184.8,37.8c0-0.1,0-0.1-0.1-0.1s-0.1,0-0.1,0.1l0,0"/>
	<path class="st0" d="M185.6,38.5c0-0.4-0.4-0.7-0.7-0.7"/>
	<path class="st0" d="M185.6,38.8c0.1,0,0.1,0,0.1-0.1s0-0.1-0.1-0.1l0,0"/>
	<path class="st0" d="M185.6,76.5V38.7"/>
	<path class="st0" d="M131.7,76.7c0.1,0,0.1,0,0.1-0.1s0-0.1-0.1-0.1l0,0"/>
	<path class="st0" d="M131,77.5c0.4,0,0.7-0.4,0.7-0.7"/>
	<path class="st0" d="M130.8,77.5c0,0.1,0,0.1,0.1,0.1s0.1,0,0.1-0.1l0,0"/>
	<path class="st0" d="M93,77.5h37.8"/>
	<path class="st0" d="M92.8,77.5c0,0.1,0,0.1,0.1,0.1s0.1,0,0.1-0.1l0,0"/>
	<path class="st0" d="M92,76.7c0,0.4,0.4,0.7,0.7,0.7"/>
	<path class="st0" d="M92,76.5c-0.1,0-0.1,0-0.1,0.1s0,0.1,0.1,0.1l0,0"/>
	<path class="st0" d="M92,38.8v37.8"/>
	<path class="st0" d="M92,38.5c-0.1,0-0.1,0-0.1,0.1s0,0.1,0.1,0.1l0,0"/>
	<path class="st0" d="M92.8,37.8c-0.4,0-0.7,0.4-0.7,0.7"/>
	<path class="st0" d="M93,37.8c0-0.1,0-0.1-0.1-0.1s-0.1,0-0.1,0.1l0,0"/>
	<path class="st0" d="M130.8,37.8H93"/>
	<path class="st0" d="M131,37.8c0-0.1,0-0.1-0.1-0.1s-0.1,0-0.1,0.1l0,0"/>
	<path class="st0" d="M131.7,38.5c0-0.4-0.4-0.7-0.7-0.7"/>
	<path class="st0" d="M131.7,38.8c0.1,0,0.1,0,0.1-0.1s0-0.1-0.1-0.1l0,0"/>
	<path class="st0" d="M131.7,76.5V38.7"/>
	<path class="st0" d="M77.9,76.7c0.1,0,0.1,0,0.1-0.1s0-0.1-0.1-0.1l0,0"/>
	<path class="st0" d="M77.1,77.5c0.4,0,0.7-0.4,0.7-0.7"/>
	<path class="st0" d="M76.9,77.5c0,0.1,0,0.1,0.1,0.1s0.1,0,0.1-0.1l0,0"/>
	<path class="st0" d="M39.1,77.5h37.8"/>
	<path class="st0" d="M38.9,77.5c0,0.1,0,0.1,0.1,0.1s0.1,0,0.1-0.1l0,0"/>
	<path class="st0" d="M38.2,76.7c0,0.4,0.4,0.7,0.7,0.7"/>
	<path class="st0" d="M38.2,76.5c-0.1,0-0.1,0-0.1,0.1s0,0.1,0.1,0.1l0,0"/>
	<path class="st0" d="M38.2,38.8v37.8"/>
	<path class="st0" d="M38.2,38.5c-0.1,0-0.1,0-0.1,0.1s0,0.1,0.1,0.1l0,0"/>
	<path class="st0" d="M38.9,37.8c-0.4,0-0.7,0.4-0.7,0.7"/>
	<path class="st0" d="M39.1,37.8c0-0.1,0-0.1-0.1-0.1s-0.1,0-0.1,0.1l0,0"/>
	<path class="st0" d="M76.9,37.8H39.1"/>
	<path class="st0" d="M77.1,37.8c0-0.1,0-0.1-0.1-0.1s-0.1,0-0.1,0.1l0,0"/>
	<path class="st0" d="M77.9,38.5c0-0.4-0.4-0.7-0.7-0.7"/>
	<path class="st0" d="M77.9,38.8c0.1,0,0.1,0,0.1-0.1s0-0.1-0.1-0.1l0,0"/>
	<path class="st0" d="M77.9,76.5V38.7"/>
	<path class="st0" d="M196.9,136.9c-0.1,0-0.1,0-0.1,0.1s0,0.1,0.1,0.1l0,0"/>
	<path class="st0" d="M208.5,168.8H15.2c-8.2,0-14.8-6.6-14.8-14.8V15.2C0.4,7,7,0.4,15.2,0.4h193.3c8.2,0,14.8,6.6,14.8,14.8V154
		C223.3,162.1,216.7,168.8,208.5,168.8z"/>
</g>
</svg>
