<?xml version="1.0" encoding="utf-8"?>
<!-- Generator: Adobe Illustrator 26.0.2, SVG Export Plug-In . SVG Version: 6.00 Build 0)  -->
<svg version="1.1" id="Layer_1" xmlns="http://www.w3.org/2000/svg" xmlns:xlink="http://www.w3.org/1999/xlink" x="0px" y="0px"
	 viewBox="0 0 223.6 169.1" style="enable-background:new 0 0 223.6 169.1;" xml:space="preserve">
<style type="text/css">
	.st0{fill:none;stroke:#020202;stroke-width:0.7087;stroke-linecap:round;stroke-linejoin:round;stroke-miterlimit:11.3386;}
</style>
<g>
	<circle class="st0" cx="18.4" cy="18" r="4.3"/>
	<circle class="st0" cx="18.4" cy="151.2" r="4.3"/>
	<circle class="st0" cx="205.5" cy="151.2" r="4.3"/>
	<circle class="st0" cx="205.5" cy="18" r="4.3"/>
	<path class="st0" d="M191.2,26.5H32.6"/>
	<path class="st0" d="M32.6,26.5c-3.1,0-5.7,2.5-5.7,5.7"/>
	<path class="st0" d="M26.9,32.2v104.9"/>
	<path class="st0" d="M26.9,137.1c0,3.1,2.5,5.7,5.7,5.7"/>
	<path class="st0" d="M32.6,142.7h158.6"/>
	<path class="st0" d="M191.4,142.7c0-0.1,0-0.1-0.1-0.1s-0.1,0-0.1,0.1l0,0"/>
	<path class="st0" d="M191.4,142.7c3-0.1,5.5-2.5,5.6-5.6"/>
	<path class="st0" d="M197,137c-0.1,0-0.1,0-0.1,0.1s0,0.1,0.1,0.1l0,0"/>
	<path class="st0" d="M197,137V32.3"/>
	<path class="st0" d="M197,32.1c-0.1,0-0.1,0-0.1,0.1s0,0.1,0.1,0.1l0,0"/>
	<path class="st0" d="M197,32.1c-0.1-3-2.5-5.5-5.6-5.6"/>
	<path class="st0" d="M191.2,26.5c0,0.1,0,0.1,0.1,0.1s0.1,0,0.1-0.1"/>
	<path class="st0" d="M208.5,168.8H15.2c-8.2,0-14.8-6.6-14.8-14.8V15.2C0.4,7,7,0.4,15.2,0.4h193.3c8.2,0,14.8,6.6,14.8,14.8V154
		C223.3,162.2,216.7,168.8,208.5,168.8z"/>
</g>
</svg>
