<?xml version="1.0" encoding="utf-8"?>
<!-- Generator: Adobe Illustrator 26.0.2, SVG Export Plug-In . SVG Version: 6.00 Build 0)  -->
<svg version="1.1" id="Layer_1" xmlns="http://www.w3.org/2000/svg" xmlns:xlink="http://www.w3.org/1999/xlink" x="0px" y="0px"
	 viewBox="0 0 223.6 169" style="enable-background:new 0 0 223.6 169;" xml:space="preserve">
<style type="text/css">
	.st0{fill:none;stroke:#010101;stroke-width:0.7087;stroke-linecap:round;stroke-linejoin:round;stroke-miterlimit:11.3386;}
	.st1{fill:none;stroke:#010101;stroke-width:0.7087;stroke-linecap:round;stroke-linejoin:round;stroke-miterlimit:11.3388;}
	.st2{fill:none;stroke:#020202;stroke-width:0.7087;stroke-linecap:round;stroke-linejoin:round;stroke-miterlimit:11.3386;}
</style>
<g>
	<circle class="st0" cx="18.2" cy="17.9" r="3.4"/>
	<circle class="st0" cx="18.2" cy="151.1" r="3.4"/>
	<ellipse transform="matrix(0.9871 -0.1602 0.1602 0.9871 -0.2062 33.115)" class="st1" cx="205.3" cy="17.8" rx="3.4" ry="3.4"/>
	<circle class="st0" cx="205.3" cy="151.1" r="3.4"/>
	<path class="st2" d="M191.2,26.5H32.6"/>
	<path class="st2" d="M32.6,26.5c-3.1,0-5.7,2.5-5.7,5.7"/>
	<path class="st2" d="M26.9,32.1V137"/>
	<path class="st2" d="M26.9,137c0,3.1,2.5,5.7,5.7,5.7"/>
	<path class="st2" d="M32.6,142.7h158.6"/>
	<path class="st2" d="M191.4,142.7c0-0.1,0-0.1-0.1-0.1s-0.1,0-0.1,0.1l0,0"/>
	<path class="st2" d="M191.4,142.7c3-0.1,5.5-2.5,5.6-5.6"/>
	<path class="st2" d="M197,136.9c-0.1,0-0.1,0-0.1,0.1s0,0.1,0.1,0.1l0,0"/>
	<path class="st2" d="M197,136.9V32.2"/>
	<path class="st2" d="M197,32c-0.1,0-0.1,0-0.1,0.1c0,0.1,0,0.1,0.1,0.1l0,0"/>
	<path class="st2" d="M197,32c-0.1-3-2.5-5.5-5.6-5.6"/>
	<path class="st2" d="M191.2,26.5c0,0.1,0,0.1,0.1,0.1s0.1,0,0.1-0.1"/>
	<path class="st2" d="M208.5,168.7H15.2c-8.2,0-14.8-6.6-14.8-14.8V15.2C0.4,7,7,0.4,15.2,0.4h193.3c8.2,0,14.8,6.6,14.8,14.8V154
		C223.3,162.1,216.7,168.7,208.5,168.7z"/>
</g>
</svg>
